<?xml version="1.0" standalone="no"?>
<!DOCTYPE svg PUBLIC "-//W3C//DTD SVG 20010904//EN"
 "http://www.w3.org/TR/2001/REC-SVG-20010904/DTD/svg10.dtd">
<svg version="1.0" xmlns="http://www.w3.org/2000/svg"
 width="737.000000pt" height="800.000000pt" viewBox="0 0 737.000000 800.000000"
 preserveAspectRatio="xMidYMid meet">

<g transform="translate(0.000000,800.000000) scale(0.100000,-0.100000)"
fill="#000000" stroke="none">
<path d="M2440 7498 c-61 -31 -94 -92 -86 -163 6 -53 25 -86 70 -119 22 -17
42 -21 106 -21 88 0 119 15 154 74 25 43 24 130 -1 174 -24 42 -94 77 -153 77
-28 0 -63 -9 -90 -22z"/>
<path d="M1495 7471 c-11 -5 -29 -19 -40 -31 -19 -21 -20 -36 -20 -529 0 -465
1 -509 18 -538 31 -58 53 -63 284 -64 221 -1 275 6 351 45 140 72 193 217 193
531 1 259 -34 388 -128 483 -87 87 -189 112 -453 111 -102 0 -194 -4 -205 -8z
m367 -282 c54 -29 86 -213 68 -399 -11 -111 -31 -171 -68 -200 -30 -24 -77
-26 -86 -4 -8 21 -8 599 1 607 10 11 62 8 85 -4z"/>
<path d="M5550 7242 c-76 -38 -99 -154 -48 -245 l26 -46 -19 -113 c-11 -62
-26 -136 -34 -164 -41 -144 -175 -244 -307 -232 -78 8 -144 67 -166 148 l-9
35 106 0 c96 0 111 3 163 28 105 52 159 137 166 263 5 95 -12 145 -73 213
-133 147 -442 154 -584 12 -91 -91 -124 -207 -119 -416 3 -122 1 -145 -15
-168 -13 -21 -25 -27 -52 -27 -56 0 -61 24 -40 222 11 100 16 199 12 248 -11
167 -82 243 -226 243 -98 0 -172 -42 -232 -133 l-15 -23 -23 37 c-32 52 -91
79 -167 79 -33 0 -70 -6 -82 -12 -43 -23 -47 -44 -52 -316 -5 -233 -7 -264
-25 -300 -17 -35 -25 -40 -57 -43 -61 -5 -65 16 -43 218 11 103 16 200 12 250
-11 166 -81 243 -225 243 -100 1 -172 -40 -233 -133 l-15 -23 -22 34 c-32 53
-94 83 -167 82 -34 0 -71 -6 -83 -12 -43 -23 -47 -44 -52 -316 -5 -245 -7
-262 -28 -303 -21 -39 -26 -43 -55 -40 -51 5 -57 28 -58 243 -1 311 -12 342
-125 352 -126 11 -202 -37 -224 -142 -18 -89 -8 -465 14 -525 37 -98 129 -153
256 -152 83 0 174 28 205 62 21 23 35 26 35 6 0 -8 14 -26 31 -40 26 -22 40
-26 92 -26 84 0 139 28 175 88 l27 47 3 247 3 248 26 20 c33 25 55 25 78 0 16
-17 18 -34 14 -113 -2 -50 -4 -157 -4 -237 0 -144 0 -145 31 -200 44 -76 90
-100 198 -100 95 0 140 11 191 46 l38 26 24 -31 c69 -88 240 -45 294 73 16 36
19 69 19 278 l0 237 26 20 c34 27 56 27 80 0 17 -18 18 -33 14 -117 -2 -54 -5
-158 -5 -233 0 -131 1 -137 30 -194 23 -46 40 -64 75 -83 41 -21 54 -23 145
-20 119 5 164 24 222 93 l37 45 56 -54 c34 -34 82 -68 125 -88 68 -32 74 -33
200 -33 129 0 130 0 208 37 184 88 264 225 302 518 14 110 16 116 47 143 100
85 129 19 93 -213 -17 -110 -19 -249 -5 -301 15 -54 51 -101 95 -126 33 -19
55 -23 126 -23 105 0 165 19 217 69 72 70 112 203 112 376 0 88 -2 98 -25 120
-29 30 -39 31 -63 7 -15 -15 -20 -41 -25 -134 -10 -162 -32 -218 -87 -218 -59
0 -67 55 -34 255 25 157 25 299 -1 350 -25 49 -68 75 -137 82 -50 5 -60 2
-161 -51 l-107 -56 1 57 c2 48 -2 60 -21 75 -28 23 -55 23 -100 0z m-470 -222
c65 -35 46 -236 -26 -269 -47 -21 -64 -7 -64 52 1 119 30 227 61 227 6 0 19
-4 29 -10z"/>
<path d="M1623 6132 c-26 -20 -46 -67 -38 -93 3 -11 7 -27 10 -38 5 -17 1 -18
-58 -14 -57 5 -66 3 -92 -20 -24 -20 -30 -33 -30 -67 0 -35 6 -47 33 -71 18
-16 40 -29 50 -29 33 0 32 -12 -3 -52 -42 -46 -47 -100 -15 -141 39 -49 102
-45 161 10 l27 24 6 -45 c10 -64 51 -106 104 -106 33 0 45 6 67 32 23 27 26
39 22 78 -2 25 -8 53 -12 63 -6 15 -4 16 20 7 38 -15 112 -12 144 5 33 16 41
33 41 79 0 39 -38 83 -79 92 -67 15 -66 13 -33 47 57 61 68 114 32 160 -41 52
-127 42 -167 -19 l-17 -26 -13 45 c-24 82 -105 122 -160 79z m96 -41 c32 -32
52 -128 33 -158 -4 -6 -20 -13 -36 -15 -24 -2 -34 3 -53 31 -13 19 -28 51 -35
72 -9 32 -8 42 6 64 20 30 58 33 85 6z m225 -57 c39 -39 2 -115 -76 -155 l-39
-20 -19 23 c-21 25 -19 45 12 95 39 65 91 89 122 57z m-345 -103 c50 -26 63
-44 55 -75 -6 -25 -10 -26 -71 -26 -67 0 -116 17 -127 45 -9 26 -7 50 6 63 18
18 94 14 137 -7z m376 -125 c46 -19 61 -50 41 -81 -9 -13 -25 -27 -37 -30 -30
-10 -102 13 -139 44 -29 24 -31 28 -19 54 11 25 17 27 66 27 29 0 69 -6 88
-14z m-305 -36 c19 -36 -53 -143 -106 -156 -64 -16 -88 59 -36 116 24 28 86
58 119 60 7 0 17 -9 23 -20z m132 -85 c29 -53 37 -122 16 -143 -18 -18 -63
-14 -83 8 -20 23 -31 101 -21 155 6 32 10 36 34 33 21 -2 33 -15 54 -53z"/>
<path d="M6054 6116 c-19 -19 -37 -48 -40 -65 -8 -38 -14 -38 -42 -6 -45 52
-114 56 -152 8 -38 -48 -19 -129 42 -174 l23 -17 -30 -7 c-96 -20 -138 -73
-111 -139 8 -19 24 -40 37 -46 22 -13 119 -9 152 5 15 6 16 4 7 -20 -5 -14
-10 -46 -10 -71 0 -123 156 -127 190 -5 5 20 10 43 10 50 0 9 14 2 36 -20 29
-29 42 -34 80 -34 38 0 50 5 70 28 40 47 26 120 -31 166 l-26 20 39 10 c68 19
102 78 78 136 -19 46 -48 59 -116 52 l-56 -5 4 57 c4 54 2 59 -28 84 -44 38
-83 36 -126 -7z m113 -37 c15 -32 4 -76 -32 -131 -22 -33 -29 -37 -53 -32 -40
10 -42 12 -42 52 0 49 15 100 37 124 25 28 74 21 90 -13z m-233 -50 c15 -12
38 -44 52 -71 l26 -51 -25 -25 -25 -25 -36 22 c-53 33 -86 77 -86 116 0 55 47
71 94 34z m400 -95 c31 -30 14 -76 -35 -93 -18 -6 -58 -11 -89 -11 -54 0 -58
2 -64 26 -8 31 9 54 57 78 42 20 111 21 131 0z m-360 -143 c14 -26 14 -30 -2
-44 -22 -20 -102 -56 -124 -57 -31 0 -68 23 -74 47 -12 46 46 82 133 83 48 0
54 -3 67 -29z m262 -32 c80 -49 85 -149 9 -149 -52 0 -143 131 -115 165 16 19
59 12 106 -16z m-155 -46 c16 -41 6 -138 -16 -163 -25 -28 -70 -26 -90 4 -14
20 -14 31 -5 68 29 107 86 154 111 91z"/>
<path d="M2326 5988 c-21 -12 -21 -50 0 -95 33 -69 91 -78 138 -22 62 73 26
160 -40 98 -22 -21 -22 -21 -33 -1 -13 23 -42 33 -65 20z"/>
<path d="M2683 5989 c-42 -12 -99 -71 -115 -118 -17 -51 -15 -137 5 -196 10
-27 44 -86 77 -130 68 -90 96 -165 85 -223 -9 -46 -21 -62 -50 -62 -36 0 -56
33 -65 106 -5 39 -15 73 -25 83 -15 15 -17 14 -31 -3 -20 -28 -18 -122 5 -171
28 -62 53 -79 124 -83 52 -3 67 0 97 20 19 13 45 43 58 68 20 38 23 56 19 115
-4 80 -23 122 -96 219 -55 72 -81 143 -81 218 0 65 13 88 50 88 38 0 49 -21
58 -111 8 -80 26 -105 57 -79 14 12 17 27 13 81 -10 136 -84 208 -185 178z"/>
<path d="M3277 5980 c-42 -33 -52 -99 -50 -325 3 -251 16 -408 37 -440 33 -51
106 -21 106 42 0 27 7 35 56 63 72 40 140 104 166 154 28 54 29 133 4 152 -44
31 -120 3 -180 -68 l-37 -43 6 45 c3 25 6 117 8 206 2 174 -4 202 -50 223 -32
15 -36 14 -66 -9z m243 -443 c0 -23 -60 -105 -101 -138 -35 -27 -39 -29 -39
-11 0 22 25 58 84 120 42 44 56 51 56 29z"/>
<path d="M3859 5986 c-127 -45 -189 -190 -189 -440 0 -230 52 -347 160 -356
107 -9 169 55 189 194 12 84 3 121 -29 121 -23 0 -25 -5 -37 -92 -15 -117 -33
-152 -74 -153 -30 0 -49 73 -56 209 -3 70 -3 148 1 174 7 43 10 47 34 47 43 1
107 35 132 70 52 73 33 197 -34 225 -42 18 -50 18 -97 1z m75 -72 c37 -36 5
-144 -50 -164 -48 -19 -52 -15 -42 45 10 66 21 97 43 118 20 21 29 21 49 1z"/>
<path d="M4163 5989 c-33 -12 -54 -73 -60 -174 -6 -92 -6 -94 -32 -97 -38 -4
-41 -37 -3 -44 l29 -6 6 -166 c6 -179 15 -224 57 -273 22 -27 34 -33 81 -37
48 -4 59 -1 83 19 32 28 45 94 24 122 -18 24 -46 13 -54 -22 -10 -45 -13 -51
-28 -51 -25 0 -30 64 -17 224 6 83 11 159 11 169 0 12 8 17 28 17 36 0 56 14
49 34 -4 10 -18 16 -37 16 l-30 0 0 103 c0 83 -4 108 -19 133 -20 33 -54 46
-88 33z"/>
<path d="M4483 5985 c-28 -20 -42 -68 -50 -177 l-6 -88 -29 0 c-25 0 -29 -4
-26 -22 2 -16 11 -24 29 -26 l27 -3 5 -167 c5 -189 15 -232 62 -279 29 -29 40
-33 84 -33 42 0 57 5 76 24 28 28 40 66 31 101 -13 53 -66 35 -66 -22 0 -27
-28 -42 -41 -22 -12 19 -11 110 3 267 l11 132 27 0 c30 0 56 23 45 40 -3 5
-19 10 -36 10 l-29 0 0 100 c0 112 -12 149 -55 168 -33 15 -36 15 -62 -3z"/>
<path d="M4916 5986 c-119 -44 -185 -200 -186 -442 0 -126 12 -194 47 -263 34
-66 75 -91 150 -91 66 0 104 30 132 104 41 110 37 216 -8 216 -22 0 -31 -19
-31 -65 0 -93 -40 -185 -80 -185 -39 0 -69 193 -55 350 7 78 8 80 34 80 41 0
113 41 138 79 25 37 31 118 13 165 -19 51 -90 75 -154 52z m75 -66 c15 -8 19
-22 19 -61 0 -45 -4 -55 -34 -85 -43 -43 -76 -46 -76 -6 0 41 26 121 46 143
20 22 20 22 45 9z"/>
<path d="M5211 5979 c-26 -28 -28 -43 -42 -289 -14 -255 -3 -426 29 -469 26
-35 82 -41 110 -11 29 32 31 62 20 308 -12 268 -9 282 83 370 59 57 72 87 44
98 -20 8 -62 -19 -107 -69 l-37 -42 -1 40 c0 46 -6 57 -37 74 -30 15 -39 14
-62 -10z"/>
<path d="M2355 5760 c-25 -48 -37 -174 -33 -347 3 -146 5 -164 24 -190 17 -22
29 -28 60 -28 35 0 41 4 58 39 19 38 19 50 7 275 -13 260 -18 281 -71 281 -23
0 -33 -7 -45 -30z"/>
<path d="M1662 5344 c-135 -67 -246 -259 -287 -498 -27 -160 -14 -300 41 -424
27 -62 107 -150 186 -203 32 -22 63 -49 70 -62 7 -13 14 -81 16 -173 l4 -152
-24 -16 c-54 -35 -65 -124 -22 -176 l26 -31 -11 -122 c-6 -67 -27 -293 -46
-502 -41 -431 -55 -780 -36 -890 15 -84 50 -166 87 -200 62 -58 148 -18 197
92 65 146 63 277 -13 1124 -22 240 -40 451 -40 467 0 17 12 48 26 69 35 52 30
111 -15 157 l-31 32 0 134 c0 171 8 199 63 235 118 78 184 156 225 267 66 178
36 456 -71 662 -67 129 -188 235 -268 236 -14 0 -48 -12 -77 -26z m40 -493
l33 -29 33 29 c55 49 125 35 152 -31 25 -61 -29 -168 -143 -278 l-44 -43 -65
71 c-119 130 -151 228 -93 285 34 35 85 34 127 -4z m80 -1088 c26 -23 24 -78
-4 -97 -33 -23 -64 -19 -87 10 -25 32 -26 52 -5 82 18 27 69 30 96 5z m-12
-915 c0 -7 -8 -22 -16 -33 -15 -20 -15 -20 -35 4 -10 12 -16 27 -13 32 8 14
64 11 64 -3z m10 -187 c0 -10 -11 -28 -24 -40 l-24 -22 -16 22 c-28 40 -21 57
24 57 32 1 40 -3 40 -17z m-25 -191 c10 8 17 7 29 -5 18 -19 12 -40 -22 -77
-23 -26 -27 -27 -43 -12 -29 26 -44 71 -29 89 9 11 17 12 32 4 14 -7 23 -7 33
1z m10 -230 c3 -5 15 -10 25 -10 19 0 45 -32 34 -42 -2 -3 2 -11 11 -18 19
-16 19 -34 1 -50 -8 -6 -13 -17 -10 -24 7 -18 -23 -46 -41 -40 -8 4 -15 1 -15
-4 0 -20 -41 -24 -61 -6 -10 9 -19 14 -19 10 0 -4 -9 -2 -20 4 -11 6 -20 19
-20 30 0 10 -4 22 -10 25 -13 8 -13 55 -1 55 5 0 11 12 13 28 2 21 9 28 31 30
15 2 27 8 27 13 0 12 47 12 55 -1z"/>
<path d="M1691 2191 c-55 -55 10 -142 78 -106 16 8 32 26 35 41 16 62 -68 110
-113 65z m69 -46 c0 -19 -20 -29 -32 -17 -15 15 -2 43 17 36 8 -3 15 -12 15
-19z"/>
<path d="M5901 5338 c-5 -14 -13 -253 -17 -531 -8 -567 -12 -532 66 -583 50
-33 60 -77 60 -256 l0 -131 -36 -40 c-34 -37 -36 -43 -32 -89 4 -32 13 -57 28
-73 l23 -25 -37 -407 c-58 -637 -66 -747 -66 -918 0 -177 14 -262 55 -332 34
-57 70 -83 115 -83 70 0 126 71 156 195 26 113 14 411 -41 1023 l-48 522 23
25 c15 16 24 41 28 73 4 46 2 52 -32 89 l-36 40 0 131 c0 183 9 221 66 260 24
18 49 43 55 56 16 34 -1 1050 -17 1066 -9 9 -14 8 -20 -2 -5 -7 -10 -219 -12
-470 -3 -447 -3 -458 -22 -458 -20 0 -20 9 -20 433 0 425 -6 513 -33 504 -6
-2 -14 -14 -18 -28 -4 -13 -7 -223 -8 -466 -1 -436 -1 -443 -21 -443 -20 0
-20 7 -20 433 0 425 -6 513 -33 504 -6 -2 -14 -14 -18 -28 -4 -13 -7 -223 -8
-466 -1 -432 -1 -443 -21 -443 -19 0 -19 11 -22 460 -2 343 -6 462 -15 471
-10 10 -14 7 -22 -13z m203 -1573 c48 -49 6 -127 -60 -111 -74 19 -60 126 16
126 16 0 35 -7 44 -15z m-14 -918 c0 -7 -6 -22 -14 -32 -12 -16 -16 -17 -30
-6 -9 7 -16 22 -16 32 0 14 7 19 30 19 18 0 30 -5 30 -13z m10 -186 c-1 -9
-10 -27 -20 -40 l-20 -23 -20 23 c-32 39 -26 56 20 56 30 0 40 -4 40 -16z m17
-207 c5 -14 -43 -94 -57 -94 -14 0 -62 80 -57 94 4 9 22 14 57 14 35 0 53 -5
57 -14z m-29 -213 c9 -5 25 -12 35 -15 9 -3 20 -14 23 -23 3 -10 11 -28 17
-41 8 -17 8 -28 -1 -42 -7 -11 -12 -26 -12 -35 0 -15 -34 -38 -43 -28 -3 3
-13 -2 -22 -11 -9 -9 -20 -16 -25 -16 -5 0 -16 7 -25 16 -9 9 -19 14 -22 11
-9 -10 -43 13 -43 28 0 9 -5 24 -12 35 -9 14 -9 25 -1 42 6 13 14 31 17 41 3
9 14 20 23 23 10 3 25 9 33 14 20 12 37 12 58 1z"/>
<path d="M6010 2188 c-25 -27 -26 -59 -2 -89 39 -47 122 -16 122 45 0 32 -36
66 -70 66 -17 0 -38 -9 -50 -22z m67 -34 c8 -21 -13 -42 -28 -27 -13 13 -5 43
11 43 6 0 13 -7 17 -16z"/>
<path d="M3768 4970 c-28 -28 -30 -35 -26 -85 5 -64 45 -129 137 -227 l60 -63
56 55 c146 143 187 255 118 324 -36 37 -100 37 -137 0 -14 -15 -26 -31 -26
-36 0 -5 -15 7 -34 26 -28 30 -40 36 -75 36 -34 0 -49 -6 -73 -30z"/>
<path d="M2815 4895 c-313 -58 -566 -280 -671 -589 -123 -362 -52 -819 190
-1216 233 -382 558 -641 989 -789 689 -236 1369 -92 1881 399 197 189 337 415
420 679 156 493 95 954 -160 1215 -159 163 -361 235 -623 223 -257 -11 -488
-106 -734 -302 l-58 -46 83 -87 c111 -116 193 -220 291 -368 l80 -123 61 32
c55 28 70 32 146 32 73 0 92 -4 137 -28 103 -53 141 -163 110 -319 -33 -166
-114 -316 -240 -442 -214 -214 -488 -309 -846 -293 -310 14 -553 115 -763 315
-132 126 -214 252 -270 412 -29 85 -32 107 -33 210 0 99 3 122 23 165 28 61
64 100 116 127 32 16 54 19 120 16 69 -3 93 -9 161 -41 66 -32 96 -55 172
-132 236 -241 433 -532 550 -812 l48 -113 46 0 c64 0 211 26 289 52 36 11 105
41 153 66 l88 45 -6 51 c-33 262 -209 639 -451 964 -109 145 -347 384 -469
470 -283 200 -565 277 -830 227z m34 -212 c56 -47 24 -133 -49 -133 -30 0 -43
6 -60 27 -39 50 -3 123 60 123 15 0 37 -8 49 -17z m417 -28 c4 -9 14 -13 23
-11 24 8 43 -8 39 -35 -3 -21 -58 -69 -79 -69 -11 0 -39 66 -39 89 0 35 45 56
56 26z m1768 -45 c48 -47 -1 -139 -67 -126 -40 8 -54 21 -62 57 -12 52 41 105
90 92 11 -3 29 -13 39 -23z m-469 -31 c4 -12 0 -40 -10 -65 l-17 -44 -40 22
c-48 27 -65 53 -47 74 7 9 21 13 31 10 11 -2 22 2 25 10 8 22 51 17 58 -7z
m-2071 -75 c21 -8 21 -48 0 -65 -31 -26 -70 25 -44 56 14 17 21 18 44 9z
m1786 -25 c15 -27 -5 -51 -39 -47 -29 3 -39 31 -21 53 18 21 48 18 60 -6z
m-630 -24 c26 -31 -13 -82 -44 -56 -19 16 -21 57 -3 64 22 9 34 7 47 -8z
m1685 -26 c4 -5 4 -21 1 -35 -5 -17 -13 -24 -31 -24 -29 0 -47 27 -34 52 11
20 54 24 64 7z m-2107 -46 c31 -28 35 -56 11 -86 -39 -51 -109 -25 -109 39 0
55 57 82 98 47z m-417 -69 c15 -18 15 -102 -1 -118 -13 -13 -82 9 -105 34 -22
24 -11 52 21 59 10 2 25 12 32 22 16 23 35 24 53 3z m1821 -1 c37 -33 17 -96
-34 -108 -21 -5 -33 -1 -53 20 -21 20 -25 32 -20 53 12 50 69 69 107 35z m393
-72 c3 -11 12 -18 18 -15 7 2 21 -2 31 -9 38 -28 -9 -81 -79 -89 -27 -3 -30 0
-38 41 -11 56 3 91 37 91 16 0 27 -7 31 -19z m-1547 -60 c5 -32 -23 -54 -49
-40 -11 5 -19 18 -19 27 0 45 62 56 68 13z m290 -80 l3 -54 -36 6 c-20 3 -43
11 -51 18 -22 18 -17 48 10 59 13 5 27 14 31 20 4 6 14 10 23 8 13 -2 18 -16
20 -57z m-1440 17 c28 -28 7 -78 -33 -78 -27 0 -45 18 -45 45 0 27 18 45 45
45 12 0 26 -5 33 -12z m1732 -39 c0 -5 11 -14 25 -19 48 -18 25 -60 -41 -74
-30 -7 -31 -5 -37 31 -7 43 14 86 38 77 8 -4 15 -10 15 -15z m1468 -62 c4 -34
-30 -54 -64 -38 -31 14 -32 54 -2 75 19 13 25 14 43 2 11 -7 21 -25 23 -39z
m-2900 -69 c7 -7 12 -24 12 -38 0 -48 -45 -67 -82 -33 -20 18 -23 36 -8 64 12
22 59 26 78 7z m2597 -68 c23 -26 11 -69 -23 -81 -30 -11 -75 30 -66 58 16 44
60 55 89 23z m-2901 -92 c23 -33 19 -64 -10 -87 -33 -26 -58 -27 -84 -1 -24
24 -26 67 -3 92 23 26 78 24 97 -4z m3226 -58 c41 -41 13 -110 -45 -110 -58 0
-86 69 -45 110 11 11 31 20 45 20 14 0 34 -9 45 -20z m-3001 -294 c9 -11 10
-20 1 -36 -21 -39 -83 -7 -67 34 8 20 50 21 66 2z m2701 -31 c14 -17 5 -51
-16 -59 -22 -8 -54 11 -54 32 0 38 46 56 70 27z"/>
<path d="M3453 3614 c-52 -100 -87 -233 -108 -412 l-6 -53 74 -34 c41 -19 114
-46 163 -60 95 -27 269 -54 280 -42 9 8 -42 145 -98 266 -47 103 -147 255
-220 335 l-54 59 -31 -59z"/>
<path d="M2238 2438 c10 -13 6 -45 -23 -177 -19 -89 -35 -171 -35 -182 0 -19
1 -19 33 -3 17 9 60 37 95 61 35 25 66 42 69 39 3 -3 0 -57 -7 -121 -6 -64 -9
-119 -6 -122 9 -9 72 36 176 126 96 83 122 93 144 59 8 -14 0 -39 -39 -120
-62 -128 -83 -161 -101 -154 -8 3 -14 3 -14 1 0 -5 136 -75 145 -75 3 0 0 9
-7 19 -9 15 -8 28 5 63 32 84 34 85 106 49 l62 -32 -33 -62 c-24 -44 -39 -62
-52 -60 -31 2 -4 -15 73 -47 59 -24 71 -26 58 -12 -22 24 -22 32 9 105 65 154
84 186 112 189 21 2 11 10 -57 40 -63 29 -80 33 -66 19 16 -19 16 -22 -1 -68
-9 -26 -21 -52 -24 -56 -4 -5 -35 5 -69 22 l-61 31 25 50 c19 37 31 50 48 50
13 1 -19 22 -81 54 -57 30 -109 59 -115 65 -17 17 -26 13 -20 -8 4 -14 -13
-32 -68 -74 -41 -31 -75 -54 -77 -52 -2 2 4 51 14 109 9 59 14 109 11 112 -3
4 -47 -19 -97 -50 -52 -32 -90 -50 -90 -43 0 7 11 49 24 93 17 58 28 79 40 78
27 -3 17 9 -42 51 -65 46 -82 55 -64 33z"/>
<path d="M5477 2333 c-3 -5 -62 -45 -131 -89 -69 -43 -125 -86 -125 -94 0 -8
6 -26 14 -40 l14 -25 1 26 c0 19 10 33 39 52 l39 26 65 -97 c86 -130 91 -140
76 -158 -20 -24 -1 -16 69 31 55 37 62 45 41 45 -28 0 -37 10 -122 142 l-56
87 35 20 c40 24 64 26 83 9 9 -9 8 -3 -2 17 -25 47 -34 58 -40 48z"/>
<path d="M5095 1926 c7 -161 6 -178 -10 -196 -15 -17 -9 -16 46 8 45 19 57 28
42 30 -15 2 -22 12 -25 33 -5 33 -1 38 58 67 l41 21 32 -29 32 -30 59 30 c33
17 60 33 60 36 0 3 -7 3 -16 0 -21 -8 -41 4 -177 106 -64 49 -124 91 -133 95
-15 5 -16 -10 -9 -171z m84 -27 c-32 -16 -34 -16 -41 -1 -4 10 -7 32 -7 50
l-1 34 41 -33 41 -32 -33 -18z"/>
<path d="M4813 1975 c-114 -41 -146 -58 -103 -53 21 3 27 -8 71 -127 49 -132
57 -165 39 -165 -5 0 -10 -4 -10 -9 0 -5 26 1 58 14 31 12 83 31 115 41 50 16
57 21 56 43 0 14 -4 35 -9 46 -8 19 -9 19 -9 -2 -1 -26 -45 -63 -76 -63 -28 0
-40 15 -60 69 -14 41 -14 42 11 51 33 13 74 13 74 0 0 -5 4 -10 9 -10 7 0 -4
59 -14 77 -1 2 -19 -6 -40 -17 -54 -27 -64 -25 -81 16 -20 47 -15 57 32 72 34
10 41 10 52 -5 11 -15 12 -15 11 3 -1 10 -4 28 -7 39 -7 20 -11 19 -119 -20z"/>
<path d="M3063 1963 c14 -17 12 -28 -24 -141 -46 -145 -56 -165 -75 -158 -8 3
-14 2 -14 -2 0 -5 46 -22 103 -39 56 -18 110 -35 119 -38 13 -5 21 2 33 31 17
41 15 53 -5 29 -25 -30 -110 -9 -110 28 0 34 23 97 35 97 32 0 74 -23 78 -43
3 -19 6 -17 20 15 21 46 22 43 -11 45 -15 1 -40 7 -56 12 -29 12 -29 18 -2 83
l11 27 43 -19 c31 -14 42 -25 43 -42 0 -18 4 -15 18 17 l17 39 -115 38 c-64
21 -118 38 -120 38 -2 0 3 -8 12 -17z"/>
<path d="M3335 1879 c-2 -8 -14 -68 -25 -134 -28 -166 -28 -165 -52 -174 -17
-6 -8 -11 47 -25 37 -9 70 -15 72 -12 2 2 -5 7 -16 11 -16 5 -21 15 -21 39 0
56 12 156 19 156 4 0 53 -54 110 -121 57 -67 107 -117 111 -113 7 7 60 281 60
308 0 4 10 10 22 15 19 7 14 9 -27 15 -28 4 -59 9 -70 12 -18 5 -17 3 3 -14
24 -18 24 -19 10 -107 l-13 -89 -97 110 c-115 132 -126 141 -133 123z"/>
<path d="M4390 1870 c-52 -10 -117 -21 -145 -25 -27 -5 -42 -10 -32 -12 23 -6
22 -51 -6 -138 l-23 -70 -54 103 c-29 56 -56 102 -60 102 -4 0 -24 -45 -45
-101 -21 -55 -41 -96 -46 -92 -4 4 -22 44 -38 88 -29 74 -30 81 -14 93 14 10
3 12 -65 12 -45 0 -82 -4 -82 -9 0 -5 7 -11 17 -13 10 -2 39 -58 82 -161 37
-88 71 -159 76 -159 9 0 58 103 85 177 11 30 11 30 66 -72 30 -57 57 -103 59
-103 9 0 35 61 79 189 50 144 64 172 77 149 4 -7 19 -73 34 -147 25 -123 26
-136 11 -147 -9 -6 -16 -13 -16 -16 0 -8 233 41 243 51 5 5 5 26 1 47 -7 35
-8 37 -14 14 -7 -30 -45 -51 -85 -48 -27 3 -31 7 -42 58 -6 30 -10 56 -8 58 2
2 22 6 45 9 33 5 44 2 55 -13 12 -17 13 -14 8 26 -3 25 -7 46 -8 48 -1 1 -15
-4 -31 -13 -16 -8 -41 -15 -55 -15 -22 0 -28 6 -33 31 -12 60 -9 66 36 73 33
5 45 3 54 -9 17 -23 20 -19 16 20 -5 41 -3 41 -142 15z"/>
<path d="M1698 1660 c-8 -13 -19 -18 -33 -14 -31 8 -51 -20 -37 -51 10 -22 77
-65 101 -65 6 0 17 23 26 52 13 46 13 54 0 75 -19 28 -41 30 -57 3z"/>
<path d="M6079 1646 c-9 -19 -7 -36 6 -75 9 -28 19 -51 21 -51 3 0 22 9 44 20
35 18 70 54 70 72 0 16 -33 38 -50 33 -9 -3 -23 1 -30 10 -19 22 -49 18 -61
-9z"/>
<path d="M1897 1532 c-22 -25 -21 -65 2 -86 14 -13 20 -38 25 -109 7 -81 27
-207 42 -255 3 -9 -4 -1 -17 20 -24 40 -55 58 -98 58 -48 0 -74 -30 -81 -91
l-6 -54 -8 50 c-15 87 -45 152 -92 199 -48 48 -124 90 -192 105 -56 12 -67 -6
-52 -86 13 -74 42 -133 90 -182 48 -50 85 -69 164 -86 58 -13 59 -13 20 -14
-116 -2 -137 -134 -30 -182 l45 -20 -34 -45 c-59 -78 -41 -153 42 -170 34 -7
64 6 104 43 l27 25 7 -43 c5 -30 18 -54 40 -76 41 -41 81 -43 124 -7 26 21 31
33 31 69 0 24 -5 56 -10 70 -9 24 -8 26 7 20 10 -5 46 -10 80 -13 56 -4 64 -2
87 21 20 20 26 36 26 67 0 52 -31 85 -95 101 l-46 12 36 37 c29 29 38 49 42
84 5 40 2 48 -25 76 -32 31 -68 38 -103 20 -14 -8 -19 -7 -19 1 0 22 68 76
144 113 69 34 80 37 105 26 41 -16 71 1 71 41 0 43 -41 61 -73 32 -12 -11 -42
-28 -67 -37 -25 -10 -60 -27 -77 -38 -39 -23 -40 -19 -12 32 15 26 31 40 50
44 59 11 64 100 7 120 -20 7 -33 5 -53 -8 -23 -15 -26 -23 -23 -60 2 -35 -5
-57 -47 -134 -27 -50 -53 -92 -56 -92 -10 0 -27 108 -35 212 -6 77 -5 88 10
94 38 15 39 82 2 106 -20 14 -63 8 -79 -10z m-374 -222 c29 -11 73 -36 96 -56
43 -38 91 -118 91 -154 0 -17 -12 -8 -56 39 -53 57 -74 68 -74 36 0 -7 23 -39
51 -69 57 -63 49 -70 -29 -26 -61 36 -116 105 -132 170 -7 25 -14 53 -17 63
-6 22 4 22 70 -3z m389 -221 c20 -27 35 -126 21 -145 -4 -6 -20 -14 -35 -18
-23 -5 -31 -1 -53 31 -39 58 -50 109 -30 139 21 33 70 30 97 -7z m216 -41 c37
-37 -4 -120 -78 -158 l-37 -19 -22 25 c-19 22 -20 27 -7 57 22 54 74 107 105
107 15 0 32 -5 39 -12z m-355 -102 c47 -20 69 -48 61 -80 -6 -24 -10 -26 -65
-26 -105 0 -160 42 -129 99 8 17 20 21 56 21 24 0 59 -6 77 -14z m381 -126
c39 -14 61 -55 48 -85 -10 -22 -18 -25 -62 -25 -51 0 -115 24 -138 53 -9 10
-9 20 1 40 11 24 17 27 69 27 31 0 68 -4 82 -10z m-304 -35 c30 -36 -65 -165
-122 -165 -25 0 -48 28 -48 59 0 38 34 79 84 102 50 23 70 24 86 4z m134 -85
c30 -55 37 -119 17 -144 -21 -25 -66 -20 -90 10 -22 28 -28 89 -15 153 5 26
11 31 34 31 22 0 32 -9 54 -50z"/>
<path d="M5867 1532 c-23 -26 -21 -65 4 -88 20 -18 21 -26 15 -113 -3 -52 -11
-121 -17 -153 l-12 -59 -57 102 c-51 91 -56 105 -47 130 10 24 8 32 -13 54
-13 14 -33 25 -45 25 -27 0 -65 -39 -65 -67 0 -22 43 -63 65 -63 8 0 30 -30
51 -67 20 -38 48 -88 63 -112 23 -40 23 -44 6 -36 -41 17 -75 17 -100 1 -56
-37 -56 -113 1 -176 38 -41 39 -39 -27 -54 -98 -21 -108 -158 -14 -182 29 -7
99 -1 129 12 16 6 18 4 12 -12 -5 -10 -11 -40 -13 -66 -5 -42 -2 -50 25 -78
53 -52 128 -35 158 36 8 18 14 46 14 61 l0 27 28 -26 c54 -53 120 -59 159 -15
41 45 33 106 -20 156 -29 26 -27 41 5 41 32 0 88 63 88 98 0 46 -36 82 -90 89
l-45 6 62 13 c103 21 178 84 223 188 27 59 38 155 20 166 -32 20 -163 -35
-231 -97 -50 -45 -76 -96 -94 -180 -8 -36 -15 -66 -17 -68 -2 -2 -3 17 -3 42
0 37 -5 49 -28 69 -43 37 -90 33 -134 -11 -19 -19 -32 -28 -29 -19 13 33 36
201 36 259 0 48 4 64 20 78 24 20 26 69 4 91 -21 22 -67 20 -87 -2z m529 -243
c-14 -91 -92 -192 -173 -226 -19 -8 -37 -13 -39 -11 -1 2 19 30 47 62 52 61
56 70 37 82 -7 4 -34 -18 -70 -57 -54 -58 -59 -61 -53 -34 19 86 76 152 169
196 83 39 90 38 82 -12z m-352 -202 c12 -32 -4 -86 -39 -133 -19 -25 -29 -30
-53 -26 -23 3 -31 10 -35 30 -7 37 7 106 27 137 14 22 24 26 54 23 30 -2 38
-8 46 -31z m-225 -56 c15 -16 35 -47 45 -69 18 -39 18 -41 0 -66 -11 -14 -22
-26 -25 -26 -3 0 -27 14 -53 31 -69 46 -95 108 -60 143 24 25 63 19 93 -13z
m388 -83 c8 -6 13 -25 11 -42 -4 -42 -52 -66 -134 -66 -59 0 -62 1 -67 28 -7
35 6 50 68 79 51 24 94 25 122 1z m-358 -144 c10 -22 9 -30 -5 -45 -26 -28
-79 -49 -127 -49 -51 0 -70 16 -65 57 4 38 55 63 129 63 51 0 57 -2 68 -26z
m236 -23 c78 -36 114 -102 76 -140 -12 -12 -30 -21 -40 -21 -50 0 -141 126
-117 163 14 22 31 21 81 -2z m-129 -53 c14 -46 8 -128 -13 -156 -24 -33 -64
-40 -88 -16 -38 39 17 194 70 194 16 0 26 -7 31 -22z"/>
<path d="M1747 1382 c-22 -24 -21 -65 1 -85 40 -36 102 -9 102 45 0 51 -69 78
-103 40z"/>
<path d="M6016 1378 c-9 -12 -16 -30 -16 -40 0 -26 36 -58 65 -58 30 0 65 32
65 60 0 53 -84 81 -114 38z"/>
<path d="M5241 1281 c-26 -26 -36 -153 -36 -466 0 -222 2 -254 18 -283 34 -63
103 -68 133 -10 15 28 16 60 9 284 l-7 253 27 50 c15 28 50 69 76 91 51 43 58
60 36 78 -20 17 -75 -16 -114 -67 l-33 -43 0 31 c0 49 -16 78 -51 90 -40 14
-36 14 -58 -8z"/>
<path d="M2467 1272 c-22 -24 -36 -94 -37 -175 0 -56 -3 -69 -17 -73 -54 -17
-66 -47 -21 -52 36 -4 37 -10 41 -207 2 -142 5 -165 25 -202 29 -56 64 -78
125 -78 41 0 53 4 73 29 20 23 24 37 22 75 -3 41 -6 46 -27 46 -20 0 -26 -8
-35 -40 -7 -23 -18 -40 -26 -40 -13 0 -15 24 -14 150 0 83 4 176 8 207 7 55 8
57 39 60 24 2 32 8 32 23 0 15 -8 21 -31 23 l-32 3 5 64 c8 89 -4 153 -32 181
-29 29 -75 31 -98 6z"/>
<path d="M2835 1248 c-72 -74 -105 -203 -105 -416 0 -125 20 -231 52 -279 32
-46 98 -77 145 -68 54 10 107 67 130 140 15 50 18 94 18 255 0 175 -2 203 -23
267 -30 97 -73 143 -132 143 -37 0 -48 -6 -85 -42z m124 -65 c33 -81 49 -321
32 -462 -19 -154 -54 -203 -88 -123 -21 47 -31 434 -14 526 16 87 47 113 70
59z"/>
<path d="M3351 1264 c-12 -15 -21 -37 -21 -49 0 -16 -11 -27 -42 -41 -107 -48
-175 -158 -147 -241 22 -69 104 -64 158 9 24 33 32 38 37 25 11 -31 -1 -350
-15 -379 -35 -70 -80 -33 -89 72 -8 81 -26 106 -57 80 -14 -12 -17 -27 -13
-85 3 -38 13 -87 22 -107 44 -91 187 -86 251 10 46 70 58 147 59 377 1 116 -3
231 -7 257 -15 89 -91 129 -136 72z m-55 -238 c-34 -49 -73 -83 -83 -72 -14
14 14 65 60 111 42 41 52 47 55 31 2 -10 -12 -41 -32 -70z"/>
<path d="M3732 1269 c-81 -40 -133 -152 -153 -326 -19 -177 10 -348 72 -411
54 -55 146 -65 202 -22 42 33 71 114 71 204 1 64 -2 81 -16 90 -28 17 -40 -5
-49 -91 -9 -94 -25 -140 -51 -154 -52 -28 -78 65 -78 284 l0 136 54 11 c67 14
103 40 127 94 32 71 18 155 -32 190 -32 22 -96 20 -147 -5z m118 -75 c23 -60
-16 -136 -77 -153 -28 -8 -33 -7 -33 8 0 34 31 136 47 153 23 26 52 22 63 -8z"/>
<path d="M4046 1268 c-18 -29 -36 -125 -36 -194 0 -50 -1 -53 -27 -56 -20 -2
-29 -9 -31 -25 -3 -20 1 -23 27 -23 l31 0 0 -145 c0 -216 23 -295 96 -330 42
-20 96 -15 125 11 28 25 44 86 30 113 -22 40 -61 22 -61 -29 0 -28 -25 -43
-40 -25 -13 16 -10 207 6 348 7 57 7 57 40 57 18 0 36 5 39 10 10 16 -15 40
-41 40 -24 0 -24 2 -24 95 0 102 -13 145 -49 165 -33 17 -69 12 -85 -12z"/>
<path d="M4356 1267 c-25 -38 -36 -157 -38 -411 -1 -253 5 -301 43 -350 28
-36 73 -33 103 7 17 23 21 49 27 155 8 137 20 186 51 203 16 9 24 7 37 -5 14
-14 16 -43 16 -192 0 -144 3 -176 15 -184 22 -14 35 -12 53 8 39 43 52 304 18
378 -33 72 -123 94 -177 43 l-23 -21 -5 33 c-3 19 -7 98 -8 176 -3 122 -6 144
-22 162 -26 28 -71 27 -90 -2z"/>
<path d="M4921 1268 c-52 -26 -93 -85 -122 -178 -40 -128 -42 -365 -4 -479 31
-95 125 -149 210 -121 67 22 115 120 115 233 0 61 -11 87 -36 87 -17 0 -24
-24 -34 -112 -10 -82 -29 -132 -56 -142 -48 -18 -67 46 -72 250 l-4 170 58 13
c79 18 129 66 139 135 21 135 -73 204 -194 144z m120 -69 c19 -37 4 -100 -31
-131 -28 -26 -80 -39 -80 -20 1 30 34 140 47 154 22 24 50 23 64 -3z"/>
<path d="M5612 1228 c-22 -22 -15 -67 12 -80 31 -14 53 -5 68 27 9 21 8 28 -7
45 -20 22 -55 26 -73 8z"/>
</g>
</svg>
